<?xml version="1.0" encoding="UTF-8"?>
<svg width="2200px" height="470px" viewBox="0 0 2200 470" version="1.1" xmlns="http://www.w3.org/2000/svg" xmlns:xlink="http://www.w3.org/1999/xlink">
    <!-- Generator: Sketch 52.3 (67297) - http://www.bohemiancoding.com/sketch -->
    <title>Artboard Copy 7</title>
    <desc>Created with Sketch.</desc>
    <defs>
        <linearGradient x1="31.0784375%" y1="8.75777058%" x2="75.3425937%" y2="98.9711844%" id="linearGradient-1">
            <stop stop-color="#00B2FF" offset="0%"></stop>
            <stop stop-color="#007AFF" offset="100%"></stop>
        </linearGradient>
    </defs>
    <g id="Artboard-Copy-7" stroke="none" stroke-width="1" fill="none" fill-rule="evenodd">
        <rect id="Rectangle-Copy" fill="url(#linearGradient-1)" fill-rule="nonzero" transform="translate(1100.000000, 164.000000) rotate(-360.000000) translate(-1100.000000, -164.000000) " x="0" y="-142" width="2200" height="612"></rect>
        <g id="Group" opacity="0" transform="translate(-29.000000, -17.000000)" fill="#FFFFFF" fill-rule="nonzero">
            <rect id="Rectangle" x="0" y="0" width="47" height="47"></rect>
            <rect id="Rectangle-Copy-2" x="0" y="60" width="47" height="47"></rect>
            <rect id="Rectangle-Copy-3" x="0" y="117" width="47" height="47"></rect>
            <rect id="Rectangle-Copy-5" x="60" y="60" width="47" height="47"></rect>
            <rect id="Rectangle-Copy-6" x="120" y="117" width="47" height="47"></rect>
            <rect id="Rectangle-Copy-4" x="60" y="117" width="47" height="47"></rect>
        </g>
        <g id="Group-Copy" opacity="0.12718564" transform="translate(126.615335, 323.236170) rotate(-330.000000) translate(-126.615335, -323.236170) translate(-83.384665, 119.736170)" fill="#FFFFFF" fill-rule="nonzero">
            <rect id="Rectangle" x="1.19872981" y="0.909655953" width="116" height="116"></rect>
            <rect id="Rectangle-Copy-2" x="0.478875335" y="145.662831" width="116" height="116"></rect>
            <rect id="Rectangle-Copy-3" x="1.12504626" y="290.782032" width="116" height="116"></rect>
            <rect id="Rectangle-Copy-5" x="158.25833" y="146.944864" width="116" height="116"></rect>
            <rect id="Rectangle-Copy-6" x="303.023702" y="289.685843" width="116" height="116"></rect>
            <rect id="Rectangle-Copy-4" x="157.904501" y="290.332014" width="116" height="116"></rect>
        </g>
        <g id="Group-Copy-5" opacity="0.12718564" transform="translate(477.615335, 346.236170) rotate(-330.000000) translate(-477.615335, -346.236170) translate(267.615335, 142.736170)" fill="#FFFFFF" fill-rule="nonzero">
            <rect id="Rectangle" x="1.19872981" y="0.909655953" width="116" height="116"></rect>
            <rect id="Rectangle-Copy-2" x="0.478875335" y="145.662831" width="116" height="116"></rect>
            <rect id="Rectangle-Copy-3" x="1.12504626" y="290.782032" width="116" height="116"></rect>
            <rect id="Rectangle-Copy-5" x="158.25833" y="146.944864" width="116" height="116"></rect>
            <rect id="Rectangle-Copy-6" x="303.023702" y="289.685843" width="116" height="116"></rect>
            <rect id="Rectangle-Copy-4" x="157.904501" y="290.332014" width="116" height="116"></rect>
        </g>
        <g id="Group-Copy-2" opacity="0.12718564" transform="translate(1063.615335, 211.236170) rotate(-330.000000) translate(-1063.615335, -211.236170) translate(853.615335, 7.736170)" fill="#FFFFFF" fill-rule="nonzero">
            <rect id="Rectangle" x="1.19872981" y="0.909655953" width="116" height="116"></rect>
            <rect id="Rectangle-Copy-2" x="0.478875335" y="145.662831" width="116" height="116"></rect>
            <rect id="Rectangle-Copy-3" x="1.12504626" y="290.782032" width="116" height="116"></rect>
            <rect id="Rectangle-Copy-5" x="158.25833" y="146.944864" width="116" height="116"></rect>
            <rect id="Rectangle-Copy-6" x="303.023702" y="289.685843" width="116" height="116"></rect>
            <rect id="Rectangle-Copy-4" x="157.904501" y="290.332014" width="116" height="116"></rect>
        </g>
        <g id="Group-Copy-3" opacity="0.12718564" transform="translate(1398.615335, 235.236170) rotate(-330.000000) translate(-1398.615335, -235.236170) translate(1188.615335, 31.736170)" fill="#FFFFFF" fill-rule="nonzero">
            <rect id="Rectangle" x="1.19872981" y="0.909655953" width="116" height="116"></rect>
            <rect id="Rectangle-Copy-2" x="0.478875335" y="145.662831" width="116" height="116"></rect>
            <rect id="Rectangle-Copy-3" x="1.12504626" y="290.782032" width="116" height="116"></rect>
            <rect id="Rectangle-Copy-5" x="158.25833" y="146.944864" width="116" height="116"></rect>
            <rect id="Rectangle-Copy-6" x="303.023702" y="289.685843" width="116" height="116"></rect>
            <rect id="Rectangle-Copy-4" x="157.904501" y="290.332014" width="116" height="116"></rect>
        </g>
        <g id="Group-Copy-4" opacity="0.12718564" transform="translate(1965.615335, 470.236170) rotate(-330.000000) translate(-1965.615335, -470.236170) translate(1755.615335, 266.736170)" fill="#FFFFFF" fill-rule="nonzero">
            <rect id="Rectangle" x="1.19872981" y="0.909655953" width="116" height="116"></rect>
            <rect id="Rectangle-Copy-2" x="0.478875335" y="145.662831" width="116" height="116"></rect>
            <rect id="Rectangle-Copy-3" x="1.12504626" y="290.782032" width="116" height="116"></rect>
            <rect id="Rectangle-Copy-5" x="158.25833" y="146.944864" width="116" height="116"></rect>
        </g>
    </g>
</svg>